<?xml version="1.0" encoding="utf-8"?>
<!-- Generator: Adobe Illustrator 26.0.2, SVG Export Plug-In . SVG Version: 6.00 Build 0)  -->
<svg version="1.0" id="Layer_1" xmlns="http://www.w3.org/2000/svg" xmlns:xlink="http://www.w3.org/1999/xlink" x="0px" y="0px"
	 width="40px" height="40px" viewBox="0 0 40 40" style="enable-background:new 0 0 40 40;" xml:space="preserve">
<style type="text/css">
	.st0{fill:url(#SVGID_1_);}
	.st1{fill:url(#SVGID_00000083062159876614540580000014690149028187887036_);}
	.st2{fill:#FFFFFF;}
	.st3{fill:url(#SVGID_00000038399554867114594660000012344726950513321857_);}
	.st4{fill:url(#SVGID_00000085222327812735712380000011950370012798078103_);}
	.st5{fill-rule:evenodd;clip-rule:evenodd;fill:url(#SVGID_00000169556315928997222910000002469430603327360170_);}
	.st6{fill:url(#SVGID_00000142870677145660396590000004749593818857372315_);}
	.st7{fill:url(#SVGID_00000059306139022713729670000007362761155776260757_);}
	.st8{fill:url(#SVGID_00000120534302044994927480000006610545106384076173_);}
	.st9{fill:url(#SVGID_00000174579273609252231480000018022824286461531816_);}
	.st10{fill:url(#SVGID_00000103958591714362115960000008031480846419837373_);}
	.st11{fill:url(#SVGID_00000103948179771703669630000014373697696116612515_);}
	.st12{fill:url(#SVGID_00000026842615659283653190000005988994970198146978_);}
	.st13{fill:url(#SVGID_00000116919445422761202360000004199110363233418679_);}
	.st14{fill:url(#SVGID_00000104702751285674200930000000000855037754845370_);}
	.st15{fill:url(#SVGID_00000039096511191117952690000010377479103836896131_);}
	.st16{fill:url(#SVGID_00000059303031970946144890000001600975425324320173_);}
	.st17{fill:url(#SVGID_00000041295615386674986870000007032610480382749585_);}
	.st18{fill:url(#SVGID_00000055688937364322148690000009920625290775363754_);}
	.st19{fill-rule:evenodd;clip-rule:evenodd;fill:url(#SVGID_00000132805364482563593800000015864345246622718908_);}
</style>
<linearGradient id="SVGID_1_" gradientUnits="userSpaceOnUse" x1="1.3443" y1="18.9217" x2="29.1446" y2="18.9217" gradientTransform="matrix(0.9281 -0.3722 0.3722 0.9281 -6.2405 7.47)">
	<stop  offset="0" style="stop-color:#8E2DE2"/>
	<stop  offset="1" style="stop-color:#4A00E0"/>
</linearGradient>
<path class="st0" d="M28.67,17.53l-3.23-0.99c-0.19-0.7-0.48-1.37-0.8-1.98l1.69-2.81c0.33-0.54,0.2-1.24-0.32-1.64l-4.31-3.42
	c-0.5-0.4-1.23-0.38-1.68,0.03l-2.42,2.23c-0.67-0.17-1.37-0.27-2.15-0.33l-1.68-2.91c-0.31-0.53-1.02-0.77-1.58-0.54L7.09,7.09
	C6.49,7.31,6.14,7.92,6.3,8.53l0.79,3.21c-0.3,0.29-0.52,0.54-0.71,0.79c-0.19,0.25-0.42,0.54-0.63,0.86l-3.36-0.07
	c-0.63,0-1.16,0.43-1.26,1.08l-0.8,5.33c-0.11,0.58,0.23,1.2,0.9,1.42l3.21,0.98c0.21,0.69,0.46,1.36,0.8,1.98l-1.69,2.81
	c-0.32,0.52-0.2,1.24,0.32,1.64L8.19,32c0.5,0.4,1.23,0.38,1.67-0.05l2.42-2.2c0.67,0.17,1.38,0.29,2.15,0.33l1.68,2.91
	c0.07,0.14,0.19,0.26,0.32,0.36c0.37,0.29,0.86,0.36,1.27,0.19l5.13-1.92c0.58-0.27,0.9-0.87,0.76-1.48l-0.79-3.21
	c0.22-0.22,0.48-0.48,0.71-0.79c0.24-0.3,0.44-0.6,0.63-0.86l3.36,0.07c0.63,0,1.16-0.43,1.28-1.07l0.8-5.33
	C29.68,18.37,29.33,17.75,28.67,17.53z"/>
<linearGradient id="SVGID_00000035527307466120311550000007869649257001349535_" gradientUnits="userSpaceOnUse" x1="21.0434" y1="35.9609" x2="34.5326" y2="35.9609" gradientTransform="matrix(0.9996 0.0298 -0.0298 0.9996 4.4295 -5.2696)">
	<stop  offset="0" style="stop-color:#8E2DE2"/>
	<stop  offset="1" style="stop-color:#4A00E0"/>
</linearGradient>
<path style="fill:url(#SVGID_00000035527307466120311550000007869649257001349535_);" d="M37.59,33.35l-1.25-1.07
	c0.05-0.35,0.05-0.7,0.03-1.04l1.3-0.92c0.25-0.17,0.33-0.51,0.18-0.79l-1.25-2.36c-0.15-0.28-0.47-0.41-0.75-0.31l-1.51,0.52
	c-0.26-0.2-0.56-0.39-0.89-0.56l-0.18-1.62c-0.04-0.3-0.31-0.54-0.6-0.55l-2.64-0.14c-0.31-0.02-0.58,0.19-0.63,0.49l-0.27,1.58
	c-0.19,0.07-0.34,0.14-0.47,0.21c-0.13,0.07-0.29,0.16-0.45,0.26l-1.48-0.68c-0.28-0.12-0.6-0.03-0.77,0.23l-1.39,2.22
	c-0.16,0.24-0.13,0.58,0.12,0.81l1.24,1.06c-0.04,0.35-0.06,0.7-0.03,1.04l-1.3,0.92c-0.24,0.17-0.33,0.51-0.18,0.79l1.26,2.36
	c0.15,0.28,0.47,0.41,0.75,0.3l1.5-0.51c0.26,0.2,0.56,0.4,0.89,0.56L29,37.79c0.01,0.08,0.03,0.15,0.07,0.22
	c0.11,0.2,0.31,0.33,0.53,0.33l2.65,0.14c0.31-0.01,0.57-0.21,0.62-0.51l0.27-1.58c0.14-0.06,0.3-0.12,0.47-0.21
	c0.16-0.09,0.31-0.18,0.45-0.26l1.48,0.68c0.28,0.12,0.6,0.03,0.78-0.23l1.39-2.22C37.87,33.92,37.84,33.58,37.59,33.35z"/>
<circle class="st2" cx="14.99" cy="19.36" r="8.97"/>
<g>
	<path class="st2" d="M32.66,31.61c-0.22-0.27-0.59-0.44-1.07-0.58c-0.48-0.11-0.81-0.22-0.98-0.31c-0.17-0.09-0.24-0.22-0.24-0.42
		c0-0.31,0.26-0.49,0.76-0.49c0.41,0,0.66,0.11,0.74,0.33c0.04,0.11,0.13,0.16,0.24,0.16l0.44-0.02c0.18,0,0.31-0.22,0.24-0.42
		c-0.15-0.49-0.53-0.78-1.16-0.87v-0.6c0-0.18-0.11-0.31-0.26-0.31H31c-0.15,0-0.26,0.13-0.26,0.31v0.58
		c-0.35,0.04-0.64,0.18-0.85,0.38c-0.29,0.27-0.44,0.6-0.44,1c0,0.36,0.11,0.67,0.33,0.91c0.22,0.24,0.59,0.42,1.09,0.56
		c0.5,0.11,0.83,0.22,0.96,0.33c0.13,0.11,0.2,0.24,0.2,0.47c0,0.47-0.28,0.69-0.85,0.69c-0.5,0-0.81-0.2-0.96-0.58
		c-0.06-0.16-0.18-0.24-0.33-0.22l-0.41,0.04c-0.15,0.02-0.24,0.18-0.18,0.33c0.2,0.71,0.66,1.11,1.4,1.22v0.51
		c0,0.18,0.11,0.31,0.26,0.31h0.37c0.15,0,0.26-0.13,0.26-0.31V34.1c0.29-0.07,0.57-0.18,0.83-0.36c0.37-0.27,0.55-0.64,0.55-1.13
		C33.01,32.21,32.88,31.88,32.66,31.61z"/>
	<path class="st2" d="M31.61,30.96L31.61,30.96L31.61,30.96c-0.48-0.11-0.8-0.22-0.96-0.3c-0.07-0.04-0.12-0.08-0.15-0.14
		c-0.03-0.05-0.05-0.12-0.05-0.21c0-0.13,0.05-0.23,0.16-0.3c0.11-0.07,0.28-0.11,0.52-0.11c0.4,0,0.61,0.11,0.66,0.28
		c0.02,0.07,0.07,0.13,0.13,0.16c0.06,0.03,0.12,0.05,0.19,0.05v0l0,0l0.44-0.02c0.13,0,0.23-0.08,0.28-0.18
		c0.06-0.1,0.07-0.23,0.03-0.35c-0.08-0.26-0.22-0.47-0.43-0.62c-0.19-0.14-0.44-0.24-0.73-0.29v-0.53c0-0.21-0.13-0.39-0.34-0.39
		H31c-0.2,0-0.34,0.18-0.34,0.39v0.51c-0.33,0.05-0.62,0.19-0.82,0.39c-0.31,0.28-0.47,0.64-0.47,1.06c0,0.37,0.12,0.7,0.35,0.96
		c0.24,0.26,0.62,0.44,1.12,0.58v0l0,0c0.25,0.06,0.45,0.11,0.61,0.16c0.16,0.06,0.26,0.11,0.31,0.15c0.06,0.05,0.1,0.1,0.13,0.16
		c0.03,0.06,0.05,0.14,0.05,0.24c0,0.22-0.06,0.36-0.18,0.46c-0.12,0.1-0.31,0.15-0.59,0.15c-0.24,0-0.43-0.05-0.57-0.14
		c-0.14-0.09-0.25-0.22-0.31-0.39c-0.07-0.18-0.22-0.3-0.42-0.27l-0.4,0.04v0l0,0c-0.2,0.03-0.32,0.24-0.25,0.44
		c0.1,0.37,0.28,0.66,0.52,0.87c0.23,0.2,0.52,0.33,0.87,0.39v0.44c0,0.21,0.13,0.39,0.34,0.39h0.37c0.2,0,0.34-0.18,0.34-0.39
		v-0.45c0.28-0.07,0.55-0.18,0.79-0.35l0,0l0,0c0.39-0.28,0.58-0.68,0.59-1.19c0.04-0.42-0.1-0.77-0.33-1.05
		C32.48,31.28,32.09,31.09,31.61,30.96z"/>
</g>
<g>
	
		<linearGradient id="SVGID_00000016762346819952380830000014142704727580045984_" gradientUnits="userSpaceOnUse" x1="15.7778" y1="12.0358" x2="9.5498" y2="26.1473">
		<stop  offset="0" style="stop-color:#8E2DE2"/>
		<stop  offset="1" style="stop-color:#4A00E0"/>
	</linearGradient>
	<path style="fill:url(#SVGID_00000016762346819952380830000014142704727580045984_);" d="M12.93,22.81v-5.28h-1.49v6.03h0.92
		L12.93,22.81z"/>
	
		<linearGradient id="SVGID_00000073711190156669078690000010039822822663367818_" gradientUnits="userSpaceOnUse" x1="18.0507" y1="13.039" x2="11.8228" y2="27.1504">
		<stop  offset="0" style="stop-color:#8E2DE2"/>
		<stop  offset="1" style="stop-color:#4A00E0"/>
	</linearGradient>
	<path style="fill:url(#SVGID_00000073711190156669078690000010039822822663367818_);" d="M15.65,22.81v-5.28h-1.49v6.03h0.92
		L15.65,22.81z"/>
	
		<linearGradient id="SVGID_00000023250136207737103500000015484999241905050037_" gradientUnits="userSpaceOnUse" x1="20.3236" y1="14.0421" x2="14.0957" y2="28.1535">
		<stop  offset="0" style="stop-color:#8E2DE2"/>
		<stop  offset="1" style="stop-color:#4A00E0"/>
	</linearGradient>
	<path style="fill:url(#SVGID_00000023250136207737103500000015484999241905050037_);" d="M18.36,22.81v-5.28h-1.49v6.03h0.92
		L18.36,22.81z"/>
	
		<linearGradient id="SVGID_00000133516637622356792140000004692558823158243471_" gradientUnits="userSpaceOnUse" x1="17.0068" y1="12.5782" x2="10.7788" y2="26.6897">
		<stop  offset="0" style="stop-color:#8E2DE2"/>
		<stop  offset="1" style="stop-color:#4A00E0"/>
	</linearGradient>
	<path style="fill:url(#SVGID_00000133516637622356792140000004692558823158243471_);" d="M19.91,16.59h-9.85
		c-0.18,0-0.35,0.13-0.35,0.28v0.57c0,0.15,0.17,0.28,0.35,0.28h9.85c0.18,0,0.35-0.13,0.35-0.28v-0.57
		C20.26,16.72,20.1,16.59,19.91,16.59z"/>
	
		<linearGradient id="SVGID_00000117636620289962049820000007243716458023089801_" gradientUnits="userSpaceOnUse" x1="19.4413" y1="13.6527" x2="13.2134" y2="27.7642">
		<stop  offset="0" style="stop-color:#8E2DE2"/>
		<stop  offset="1" style="stop-color:#4A00E0"/>
	</linearGradient>
	<path style="fill:url(#SVGID_00000117636620289962049820000007243716458023089801_);" d="M19.91,22.8h-9.85
		c-0.18,0-0.35,0.21-0.35,0.48v0.93c0,0.25,0.17,0.48,0.35,0.48h9.85c0.18,0,0.35-0.21,0.35-0.48v-0.93
		C20.26,23.01,20.1,22.8,19.91,22.8z"/>
	
		<linearGradient id="SVGID_00000002386021089748255580000004405225136608269480_" gradientUnits="userSpaceOnUse" x1="16.8677" y1="12.5168" x2="10.6397" y2="26.6283">
		<stop  offset="0" style="stop-color:#8E2DE2"/>
		<stop  offset="1" style="stop-color:#4A00E0"/>
	</linearGradient>
	<path style="fill-rule:evenodd;clip-rule:evenodd;fill:url(#SVGID_00000002386021089748255580000004405225136608269480_);" d="
		M15.79,13.69c-0.74-0.52-1.38-0.25-1.71,0l-3.99,3.09h9.79L15.79,13.69z"/>
</g>
</svg>
