<?xml version="1.0" encoding="utf-8"?>
<!-- Generator: Adobe Illustrator 26.0.2, SVG Export Plug-In . SVG Version: 6.00 Build 0)  -->
<svg version="1.0" id="Layer_1" xmlns="http://www.w3.org/2000/svg" xmlns:xlink="http://www.w3.org/1999/xlink" x="0px" y="0px"
	 width="40px" height="40px" viewBox="0 0 40 40" style="enable-background:new 0 0 40 40;" xml:space="preserve">
<style type="text/css">
	.st0{fill:url(#SVGID_1_);}
	.st1{fill:url(#SVGID_00000134216970874310790650000005340088104263799464_);}
	.st2{fill:url(#SVGID_00000051351988664975954210000000942903518710752656_);}
	.st3{fill:url(#SVGID_00000000180582553307911940000006257725078602482084_);}
	.st4{fill:url(#SVGID_00000111883460848217182280000004131723510103354789_);}
	.st5{fill:url(#SVGID_00000100345442080251389150000005380097680268415628_);}
	.st6{fill:#FFFFFF;}
	.st7{fill:url(#SVGID_00000019661485237812716500000008716155986474266515_);}
	.st8{fill:url(#SVGID_00000124162244412763978680000000211077168380126088_);}
	.st9{fill-rule:evenodd;clip-rule:evenodd;fill:url(#SVGID_00000030482499704409428800000015255174709571974844_);}
	.st10{fill:url(#SVGID_00000126290233635087664410000007018624999738983830_);}
	.st11{fill:url(#SVGID_00000088845601018597334130000005522932594214629030_);}
	.st12{fill:url(#SVGID_00000076595840318204859490000000963370243052182146_);}
	.st13{fill:url(#SVGID_00000005240400880230769130000016127904470713291962_);}
	.st14{fill:url(#SVGID_00000096022952493559351570000005674718457547053747_);}
	.st15{fill:url(#SVGID_00000114780905961306646730000001956278541138958777_);}
	.st16{fill:url(#SVGID_00000086670593651742550380000009582989136132465561_);}
	.st17{fill:url(#SVGID_00000090265455926730207830000006939941738336691380_);}
	.st18{fill:url(#SVGID_00000142857567614132609330000007718319736176993426_);}
	.st19{fill:url(#SVGID_00000109739109266323022220000016460666292936380575_);}
	.st20{fill:url(#SVGID_00000158025497784075878480000005073594661752466623_);}
	.st21{fill:url(#SVGID_00000027572910639066002740000013271591366986692530_);}
	.st22{fill:url(#SVGID_00000093163950722082670860000005024714418068525503_);}
	.st23{fill-rule:evenodd;clip-rule:evenodd;fill:url(#SVGID_00000077318731107183240850000008442347418102626216_);}
	.st24{fill:url(#SVGID_00000132086802280202432580000016851446419208960172_);}
	.st25{fill:url(#SVGID_00000177475038672056987580000006160345269220709565_);}
	.st26{fill:url(#SVGID_00000160191791073558167330000004499453901067071639_);}
	.st27{fill:url(#SVGID_00000058556893303425117380000006732485783101712540_);}
	.st28{fill-rule:evenodd;clip-rule:evenodd;fill:#FFFFFF;}
	.st29{fill:url(#SVGID_00000030471269604360643830000016530194691054519200_);}
	.st30{fill:url(#SVGID_00000172412675149962847430000000108687309808976021_);}
	.st31{fill:url(#SVGID_00000177452797561148447990000016443982898364516258_);}
	.st32{fill:url(#SVGID_00000115489264595803795540000013698918655763908017_);}
	.st33{fill:url(#SVGID_00000048490368002695446730000005657920568127837571_);}
	.st34{fill:url(#SVGID_00000169530883060136648970000017966423127786468260_);}
	.st35{fill:url(#SVGID_00000153680761179627348370000017806651990060067712_);}
	.st36{fill:url(#SVGID_00000016793930547073765960000016552291123929526704_);}
</style>
<linearGradient id="SVGID_1_" gradientUnits="userSpaceOnUse" x1="0.1365" y1="20.0941" x2="40.1284" y2="20.0941">
	<stop  offset="0" style="stop-color:#FF6A00"/>
	<stop  offset="1" style="stop-color:#EE0979"/>
</linearGradient>
<path class="st0" d="M31.48,40.09H8.78c-4.77,0-8.64-3.87-8.64-8.64V8.74c0-4.77,3.87-8.64,8.64-8.64h22.7
	c4.77,0,8.64,3.87,8.64,8.64v22.7C40.13,36.22,36.26,40.09,31.48,40.09z"/>
<path class="st6" d="M33.34,14.85l-8.81-2.35c-1.26-0.35-2.48,0.66-2.48,2.01v18.38h10.8c1.09,0,1.99-0.93,1.99-2.08V16.86
	C34.83,15.92,34.2,15.09,33.34,14.85z"/>
<path class="st28" d="M20.12,7.75c-0.43-0.34-0.97-0.46-1.49-0.43L7.07,9.11C6.18,9.3,5.55,10.07,5.42,11v19.65
	c0,1.23,1,2.23,2.23,2.23h0.81h1.28h6.74h3.17h1.1v-1.11v-7.98V9.21C20.76,8.65,20.52,8.12,20.12,7.75z M16.72,17.09h-1.69
	c-0.42,0-0.84-0.33-0.84-0.78c0-0.42,0.39-0.78,0.84-0.78h1.69c0.49,0,0.84,0.36,0.84,0.78S17.18,17.09,16.72,17.09z M17.57,19.42
	c0,0.42-0.39,0.78-0.84,0.78h-1.69c-0.42,0-0.84-0.39-0.84-0.78c0-0.42,0.39-0.78,0.84-0.78h1.69C17.18,18.64,17.57,19,17.57,19.42z
	 M15.04,12.43h1.69c0.45,0,0.84,0.36,0.84,0.78c0,0.42-0.39,0.78-0.84,0.78h-1.69c-0.42,0-0.84-0.36-0.84-0.78
	C14.2,12.79,14.58,12.43,15.04,12.43z M9.46,12.43h1.69c0.45,0,0.84,0.36,0.84,0.78c0,0.42-0.39,0.78-0.84,0.78H9.46
	c-0.45,0-0.84-0.36-0.84-0.78C8.62,12.79,9.01,12.43,9.46,12.43z M9.46,15.53h1.69c0.45,0,0.84,0.36,0.84,0.78s-0.39,0.78-0.84,0.78
	H9.46c-0.45,0-0.84-0.33-0.84-0.78C8.62,15.89,9.01,15.53,9.46,15.53z M9.46,18.64h1.69c0.45,0,0.84,0.36,0.84,0.78
	c0,0.42-0.39,0.78-0.84,0.78H9.46c-0.45,0-0.84-0.39-0.84-0.78C8.62,19,9.01,18.64,9.46,18.64z"/>
<linearGradient id="SVGID_00000023961069824824304530000004725518214024621216_" gradientUnits="userSpaceOnUse" x1="14.6567" y1="25.0661" x2="28.4336" y2="25.0661">
	<stop  offset="0" style="stop-color:#FF6A00"/>
	<stop  offset="1" style="stop-color:#EE0979"/>
</linearGradient>
<circle style="fill:url(#SVGID_00000023961069824824304530000004725518214024621216_);" cx="21.55" cy="25.07" r="6.89"/>
<path class="st6" d="M25.08,25.66c0.03-0.24,0.02-0.48,0-0.7l0.86-0.65c0.17-0.12,0.21-0.35,0.1-0.54l-0.89-1.56
	c-0.1-0.18-0.33-0.27-0.51-0.19l-1.01,0.38c-0.18-0.13-0.38-0.25-0.61-0.36l-0.16-1.09c-0.03-0.2-0.22-0.36-0.42-0.36l-1.79-0.04
	c-0.21-0.01-0.39,0.14-0.42,0.34l-0.15,1.07c-0.12,0.05-0.22,0.1-0.31,0.15s-0.19,0.11-0.3,0.18l-1.01-0.43
	c-0.19-0.08-0.41-0.01-0.51,0.17l-0.89,1.52c-0.1,0.16-0.08,0.39,0.1,0.54l0.86,0.69c-0.02,0.24-0.03,0.47,0,0.7l-0.86,0.65
	c-0.16,0.12-0.21,0.35-0.1,0.54l0.9,1.57c0.1,0.18,0.33,0.27,0.51,0.19l1-0.37c0.18,0.13,0.38,0.26,0.61,0.36l0.16,1.09
	c0.01,0.05,0.03,0.1,0.05,0.15c0.08,0.13,0.22,0.21,0.36,0.21l1.79,0.04c0.21-0.01,0.38-0.15,0.41-0.36L23,28.5
	c0.09-0.04,0.2-0.09,0.31-0.15c0.11-0.06,0.21-0.13,0.3-0.18l1.01,0.43c0.19,0.08,0.41,0.01,0.52-0.17l0.89-1.52
	c0.1-0.16,0.07-0.39-0.1-0.54L25.08,25.66z M22.75,27.34c-1.15,0.64-2.62,0.21-3.29-0.95c-0.67-1.17-0.27-2.62,0.88-3.26
	c1.15-0.64,2.62-0.21,3.29,0.95C24.29,25.24,23.9,26.7,22.75,27.34z"/>
</svg>
