<?xml version="1.0" encoding="utf-8"?>
<!-- Generator: Adobe Illustrator 26.0.2, SVG Export Plug-In . SVG Version: 6.00 Build 0)  -->
<svg version="1.0" id="Layer_1" xmlns="http://www.w3.org/2000/svg" xmlns:xlink="http://www.w3.org/1999/xlink" x="0px" y="0px"
	 width="40px" height="40px" viewBox="0 0 40 40" style="enable-background:new 0 0 40 40;" xml:space="preserve">
<style type="text/css">
	.st0{fill:url(#SVGID_1_);}
	.st1{fill:url(#SVGID_00000101075054600421907760000011325021958907194513_);}
	.st2{fill:#FFFFFF;}
	.st3{fill:url(#SVGID_00000085212504505817965650000005772338367384870787_);}
	.st4{fill:url(#SVGID_00000136383785045645395650000012348550998027612584_);}
	.st5{fill-rule:evenodd;clip-rule:evenodd;fill:url(#SVGID_00000052812088020926896180000007147676430197446546_);}
	.st6{fill:url(#SVGID_00000026153538990527789920000014327878038303255700_);}
	.st7{fill:url(#SVGID_00000039855393711960126380000014205723582033692056_);}
	.st8{fill:url(#SVGID_00000053516212757297531060000001399100889604772507_);}
	.st9{fill:url(#SVGID_00000154400840713893212110000015733490347672459669_);}
	.st10{fill:url(#SVGID_00000042726588821619806530000010781907345041906061_);}
	.st11{fill:url(#SVGID_00000181057903687201285900000007623690647707977643_);}
	.st12{fill:url(#SVGID_00000088118957544415462640000012708779316085223319_);}
	.st13{fill:url(#SVGID_00000020362063960206737010000009067491612998417330_);}
	.st14{fill:url(#SVGID_00000104673410578747524820000011243530141958266784_);}
	.st15{fill:url(#SVGID_00000165923965221722942100000008817161002279099576_);}
	.st16{fill:url(#SVGID_00000090986148389649669060000009112283694430346887_);}
	.st17{fill:url(#SVGID_00000127752874077758322980000017533542127097482372_);}
	.st18{fill:url(#SVGID_00000083795897561666382500000018220251100663221165_);}
	.st19{fill-rule:evenodd;clip-rule:evenodd;fill:url(#SVGID_00000044139048920555686550000003983316657030616725_);}
</style>
<g>
	<linearGradient id="SVGID_1_" gradientUnits="userSpaceOnUse" x1="25.7945" y1="5.7951" x2="30.6045" y2="5.7951">
		<stop  offset="0" style="stop-color:#00C6FF"/>
		<stop  offset="1" style="stop-color:#0072FF"/>
	</linearGradient>
	<polygon class="st0" points="25.79,3.53 25.79,8.06 30.6,8.06 	"/>
	
		<linearGradient id="SVGID_00000122001371377108664820000015958535768272590221_" gradientUnits="userSpaceOnUse" x1="5.1028" y1="20" x2="31.1491" y2="20">
		<stop  offset="0" style="stop-color:#00C6FF"/>
		<stop  offset="1" style="stop-color:#0072FF"/>
	</linearGradient>
	<path style="fill:url(#SVGID_00000122001371377108664820000015958535768272590221_);" d="M26.16,9.89c-1.27,0-2.27-0.87-2.27-1.92
		V3.7c0-0.26,0-0.44,0.09-0.7H9.19c-2.27,0-4.08,1.74-4.08,3.92v26.06c0,2.18,1.82,4.01,4.08,4.01h17.79c2.27,0,4.08-1.74,4.08-3.92
		V28.8l0.08-11.15l0.01-0.01V9.89C29.7,9.89,26.16,9.89,26.16,9.89z"/>
</g>
<g>
	<path class="st2" d="M25.84,13.81H9.05c-0.42,0-0.77-0.34-0.77-0.77v-0.2c0-0.42,0.34-0.77,0.77-0.77h16.79
		c0.42,0,0.77,0.34,0.77,0.77v0.2C26.61,13.47,26.27,13.81,25.84,13.81z"/>
	<path class="st2" d="M25.84,19.83H9.05c-0.42,0-0.77-0.34-0.77-0.77v-0.2c0-0.42,0.34-0.77,0.77-0.77h16.79
		c0.42,0,0.77,0.34,0.77,0.77v0.2C26.61,19.48,26.27,19.83,25.84,19.83z"/>
	<path class="st2" d="M18.85,25.66H9.05c-0.42,0-0.77-0.34-0.77-0.77v-0.2c0-0.42,0.34-0.77,0.77-0.77h9.81
		c0.42,0,0.77,0.34,0.77,0.77v0.2C19.62,25.32,19.28,25.66,18.85,25.66z"/>
	<path class="st2" d="M17.86,31.5H9.02c-0.42,0-0.77-0.34-0.77-0.77v-0.2c0-0.42,0.34-0.77,0.77-0.77h8.84
		c0.42,0,0.77,0.34,0.77,0.77v0.2C18.63,31.16,18.28,31.5,17.86,31.5z"/>
</g>
<g>
	<circle class="st2" cx="27.99" cy="27.19" r="9.37"/>
	
		<linearGradient id="SVGID_00000003797975260481783790000009656607400634842794_" gradientUnits="userSpaceOnUse" x1="37.4869" y1="24.0447" x2="16.6791" y2="3.2369" gradientTransform="matrix(1 0 0 -1 0 42)">
		<stop  offset="0" style="stop-color:#00C6FF"/>
		<stop  offset="1" style="stop-color:#0072FF"/>
	</linearGradient>
	<path style="fill:url(#SVGID_00000003797975260481783790000009656607400634842794_);" d="M24.08,29.45l-0.94,2.77l2.89-0.91
		L24.08,29.45z"/>
	
		<linearGradient id="SVGID_00000100343919709929971390000006722482417586727045_" gradientUnits="userSpaceOnUse" x1="37.5425" y1="23.9891" x2="16.7348" y2="3.1812" gradientTransform="matrix(1 0 0 -1 0 42)">
		<stop  offset="0" style="stop-color:#00C6FF"/>
		<stop  offset="1" style="stop-color:#0072FF"/>
	</linearGradient>
	<path style="fill:url(#SVGID_00000100343919709929971390000006722482417586727045_);" d="M33.42,22.36c-0.56-0.53-1.44-0.53-1.94,0
		l-6.61,6.3l1.94,1.87l6.61-6.35C33.97,23.69,33.97,22.84,33.42,22.36z"/>
</g>
</svg>
