<?xml version="1.0" encoding="utf-8"?>
<!-- Generator: Adobe Illustrator 26.0.2, SVG Export Plug-In . SVG Version: 6.00 Build 0)  -->
<svg version="1.0" id="Layer_1" xmlns="http://www.w3.org/2000/svg" xmlns:xlink="http://www.w3.org/1999/xlink" x="0px" y="0px"
	 width="40px" height="40px" viewBox="0 0 40 40" style="enable-background:new 0 0 40 40;" xml:space="preserve">
<style type="text/css">
	.st0{fill:url(#SVGID_1_);}
	.st1{fill:url(#SVGID_00000029760796197789444860000015850664772923241655_);}
	.st2{fill:#FFFFFF;}
	.st3{fill:url(#SVGID_00000160157750539741018220000004868350291200405685_);}
	.st4{fill:url(#SVGID_00000148622734542708490390000009040253636554582656_);}
	.st5{fill-rule:evenodd;clip-rule:evenodd;fill:url(#SVGID_00000008132575987515107780000007242310012604008835_);}
	.st6{fill:url(#SVGID_00000119114710249098989990000003537159982787561621_);}
	.st7{fill:url(#SVGID_00000166636708753707599750000018318610995057265329_);}
	.st8{fill:url(#SVGID_00000127740007908282878590000005866187587163209636_);}
	.st9{fill:url(#SVGID_00000056421601260961523980000003859962582181437062_);}
	.st10{fill:url(#SVGID_00000116945463943802530380000006751717636456239020_);}
	.st11{fill:url(#SVGID_00000029733050212002646840000003213255903144938902_);}
	.st12{fill:url(#SVGID_00000140732063031607960560000004815568201724434572_);}
	.st13{fill:url(#SVGID_00000080179077768755770900000009272603771396250786_);}
	.st14{fill:url(#SVGID_00000176758475323532045250000014279506689416933562_);}
	.st15{fill:url(#SVGID_00000179625337063094926200000009410545411539038894_);}
	.st16{fill:url(#SVGID_00000168101651204053949250000011437630721188972200_);}
	.st17{fill:url(#SVGID_00000020365237301090614410000015968432214603666334_);}
	.st18{fill:url(#SVGID_00000170244576931121931270000006230420910065428386_);}
	.st19{fill-rule:evenodd;clip-rule:evenodd;fill:url(#SVGID_00000009567750292799258400000004558231722721331355_);}
</style>
<linearGradient id="SVGID_1_" gradientUnits="userSpaceOnUse" x1="25.5585" y1="3.6605" x2="37.5978" y2="35.1616" gradientTransform="matrix(1 0 0 -1 0 42)">
	<stop  offset="0" style="stop-color:#FF6A00"/>
	<stop  offset="1" style="stop-color:#EE0979"/>
</linearGradient>
<path class="st0" d="M37.97,12.69l-11.98-3.2c-1.71-0.47-3.38,0.89-3.38,2.73v25H37.3c1.49,0,2.7-1.27,2.7-2.82V15.42
	C40,14.15,39.14,13.02,37.97,12.69z"/>
<linearGradient id="SVGID_00000154412655360423093030000002698107537555434428_" gradientUnits="userSpaceOnUse" x1="-5.1614" y1="30.9968" x2="26.274" y2="12.1356">
	<stop  offset="0" style="stop-color:#FF6A00"/>
	<stop  offset="1" style="stop-color:#EE0979"/>
</linearGradient>
<path style="fill-rule:evenodd;clip-rule:evenodd;fill:url(#SVGID_00000154412655360423093030000002698107537555434428_);" d="
	M20,3.03c-0.58-0.46-1.32-0.63-2.03-0.59L2.24,4.89c-1.2,0.25-2.07,1.3-2.24,2.57v26.72c0,1.68,1.36,3.04,3.04,3.04h1.1H5.9h9.17
	h4.31h1.49V35.7V24.84V5.01C20.87,4.25,20.54,3.54,20,3.03z M15.38,15.73h-2.29c-0.57,0-1.15-0.45-1.15-1.06
	c0-0.57,0.53-1.06,1.15-1.06h2.29c0.66,0,1.15,0.49,1.15,1.06S16,15.73,15.38,15.73z M16.53,18.9c0,0.57-0.53,1.06-1.15,1.06h-2.29
	c-0.57,0-1.15-0.53-1.15-1.06c0-0.57,0.53-1.06,1.15-1.06h2.29C16,17.84,16.53,18.33,16.53,18.9z M13.09,9.39h2.29
	c0.62,0,1.15,0.49,1.15,1.06S16,11.5,15.38,11.5h-2.29c-0.57,0-1.15-0.49-1.15-1.06S12.47,9.39,13.09,9.39z M5.5,9.39h2.29
	c0.62,0,1.15,0.49,1.15,1.06c0,0.57-0.53,1.06-1.15,1.06H5.5c-0.62,0-1.15-0.49-1.15-1.06C4.35,9.88,4.88,9.39,5.5,9.39z M5.5,13.62
	h2.29c0.62,0,1.15,0.49,1.15,1.06s-0.53,1.06-1.15,1.06H5.5c-0.62,0-1.15-0.45-1.15-1.06C4.35,14.1,4.88,13.62,5.5,13.62z
	 M5.5,17.84h2.29c0.62,0,1.15,0.49,1.15,1.06c0,0.57-0.53,1.06-1.15,1.06H5.5c-0.62,0-1.15-0.53-1.15-1.06
	C4.35,18.33,4.88,17.84,5.5,17.84z"/>
<circle class="st2" cx="21.94" cy="26.58" r="9.37"/>
<linearGradient id="SVGID_00000036224291144393072650000012927336488141242244_" gradientUnits="userSpaceOnUse" x1="15.7426" y1="26.8177" x2="28.1304" y2="26.8177">
	<stop  offset="0" style="stop-color:#FF6A00"/>
	<stop  offset="1" style="stop-color:#EE0979"/>
</linearGradient>
<path style="fill:url(#SVGID_00000036224291144393072650000012927336488141242244_);" d="M26.74,27.39c0.04-0.32,0.03-0.65,0-0.95
	l1.17-0.88c0.23-0.17,0.29-0.48,0.14-0.73l-1.22-2.13c-0.14-0.25-0.45-0.36-0.7-0.26l-1.37,0.52c-0.25-0.18-0.52-0.34-0.83-0.49
	l-0.21-1.48c-0.04-0.27-0.3-0.49-0.57-0.49l-2.43-0.06c-0.28-0.01-0.53,0.19-0.57,0.47l-0.2,1.46c-0.17,0.07-0.3,0.14-0.42,0.21
	c-0.12,0.07-0.26,0.15-0.4,0.25l-1.38-0.58c-0.26-0.1-0.55-0.01-0.7,0.24l-1.22,2.07c-0.14,0.22-0.11,0.54,0.13,0.74l1.17,0.94
	c-0.03,0.32-0.04,0.64,0,0.95l-1.17,0.88c-0.22,0.16-0.29,0.48-0.14,0.73l1.22,2.13c0.14,0.25,0.45,0.36,0.7,0.26l1.36-0.51
	c0.25,0.18,0.52,0.35,0.83,0.49l0.21,1.48c0.01,0.07,0.04,0.14,0.07,0.2c0.11,0.18,0.3,0.29,0.49,0.29l2.44,0.06
	c0.28-0.01,0.52-0.21,0.56-0.49l0.2-1.46c0.13-0.06,0.28-0.12,0.42-0.21c0.15-0.08,0.28-0.17,0.4-0.25l1.38,0.58
	c0.26,0.1,0.55,0.01,0.71-0.23l1.22-2.07c0.14-0.22,0.1-0.54-0.13-0.74L26.74,27.39z M23.58,29.68c-1.57,0.87-3.57,0.29-4.47-1.29
	c-0.9-1.59-0.37-3.57,1.19-4.44c1.57-0.87,3.57-0.29,4.47,1.29C25.67,26.82,25.14,28.81,23.58,29.68z"/>
</svg>
