<?xml version="1.0" encoding="utf-8"?>
<!-- Generator: Adobe Illustrator 26.0.2, SVG Export Plug-In . SVG Version: 6.00 Build 0)  -->
<svg version="1.0" id="Layer_1" xmlns="http://www.w3.org/2000/svg" xmlns:xlink="http://www.w3.org/1999/xlink" x="0px" y="0px"
	 width="40px" height="40px" viewBox="0 0 40 40" style="enable-background:new 0 0 40 40;" xml:space="preserve">
<style type="text/css">
	.st0{fill:url(#SVGID_1_);}
	.st1{fill:url(#SVGID_00000114031540174566382510000010988260757373113787_);}
	.st2{fill:url(#SVGID_00000160180665330487418510000016547106346549006237_);}
	.st3{fill:url(#SVGID_00000047742594804545721910000015278696931722622347_);}
	.st4{fill:url(#SVGID_00000165222399002755996120000005857218284675017114_);}
	.st5{fill:url(#SVGID_00000034798617052686048930000009465604214276202389_);}
	.st6{fill:#FFFFFF;}
	.st7{fill:url(#SVGID_00000108299331334677809160000000830269209935604360_);}
	.st8{fill:url(#SVGID_00000139993446374439763650000011748519310669254806_);}
	.st9{fill-rule:evenodd;clip-rule:evenodd;fill:url(#SVGID_00000050628626551870273370000003939854757914455693_);}
	.st10{fill:url(#SVGID_00000100349908663518264390000017731993196108296093_);}
	.st11{fill:url(#SVGID_00000001639255684593411940000006457593114917115315_);}
	.st12{fill:url(#SVGID_00000026157108168796845750000016480696183338641855_);}
	.st13{fill:url(#SVGID_00000151514007019630976960000009153449651471183771_);}
	.st14{fill:url(#SVGID_00000145745901675369485560000008985683198168424342_);}
	.st15{fill:url(#SVGID_00000047060532974012288780000005113771624573866897_);}
	.st16{fill:url(#SVGID_00000083076400235094612490000014915740287535178637_);}
	.st17{fill:url(#SVGID_00000145049783367776703560000011466777498722703781_);}
	.st18{fill:url(#SVGID_00000047056728225472707680000018374864859891044243_);}
	.st19{fill:url(#SVGID_00000173143502552216623740000017489884749651163547_);}
	.st20{fill:url(#SVGID_00000096752574555686835540000008285198058639094419_);}
	.st21{fill:url(#SVGID_00000120558768260348727140000005003906318783904133_);}
	.st22{fill:url(#SVGID_00000032649085361642668970000015507510783533376172_);}
	.st23{fill-rule:evenodd;clip-rule:evenodd;fill:url(#SVGID_00000031186524379858949780000000071897293733053582_);}
	.st24{fill:url(#SVGID_00000066505164839988876380000014548938979147760778_);}
	.st25{fill:url(#SVGID_00000097500163033006139410000012447609311980646276_);}
	.st26{fill:url(#SVGID_00000054971690703052541350000006171478784153428864_);}
	.st27{fill:url(#SVGID_00000051363460026654460430000008934505209990306992_);}
	.st28{fill-rule:evenodd;clip-rule:evenodd;fill:#FFFFFF;}
	.st29{fill:url(#SVGID_00000111168922580109172510000014220463792018840971_);}
	.st30{fill:url(#SVGID_00000078724738717303120610000003425082539980007044_);}
	.st31{fill:url(#SVGID_00000012440180434029451740000015316351045076047781_);}
	.st32{fill:url(#SVGID_00000078743936575703652390000010911742929683782019_);}
	.st33{fill:url(#SVGID_00000180353139442104206780000009955268905084901251_);}
	.st34{fill:url(#SVGID_00000082332015093228531120000012999123863638166689_);}
	.st35{fill:url(#SVGID_00000181082554340649465010000005003576051586041226_);}
	.st36{fill:url(#SVGID_00000086694285899427896440000015510017409251144637_);}
</style>
<linearGradient id="SVGID_1_" gradientUnits="userSpaceOnUse" x1="0.3023" y1="20.0941" x2="40.2943" y2="20.0941">
	<stop  offset="0" style="stop-color:#00C6FF"/>
	<stop  offset="1" style="stop-color:#0072FF"/>
</linearGradient>
<path class="st0" d="M31.65,40.09H8.95c-4.77,0-8.64-3.87-8.64-8.64V8.74c0-4.77,3.87-8.64,8.64-8.64h22.7
	c4.77,0,8.64,3.87,8.64,8.64v22.7C40.29,36.22,36.42,40.09,31.65,40.09z"/>
<g>
	<polygon class="st6" points="25.61,7.76 25.61,11.3 29.37,11.3 	"/>
	<path class="st6" d="M25.9,12.73c-0.99,0-1.77-0.68-1.77-1.5V7.9c0-0.2,0-0.34,0.07-0.54H12.64c-1.77,0-3.19,1.36-3.19,3.06v20.35
		c0,1.7,1.42,3.13,3.19,3.13h13.89c1.77,0,3.19-1.36,3.19-3.06V27.5l0.07-8.71l0.01-0.01v-6.06C28.66,12.73,25.9,12.73,25.9,12.73z"
		/>
</g>
<g>
	
		<linearGradient id="SVGID_00000107582438713399833120000008411776257159891850_" gradientUnits="userSpaceOnUse" x1="11.9307" y1="15.1112" x2="26.2501" y2="15.1112">
		<stop  offset="0" style="stop-color:#00C6FF"/>
		<stop  offset="1" style="stop-color:#0072FF"/>
	</linearGradient>
	<path style="fill:url(#SVGID_00000107582438713399833120000008411776257159891850_);" d="M25.57,15.79H12.61
		c-0.38,0-0.68-0.3-0.68-0.68v0c0-0.38,0.3-0.68,0.68-0.68h12.96c0.38,0,0.68,0.3,0.68,0.68v0C26.25,15.49,25.95,15.79,25.57,15.79z
		"/>
	
		<linearGradient id="SVGID_00000122704108253230439240000006770207891678513557_" gradientUnits="userSpaceOnUse" x1="11.9307" y1="19.8081" x2="26.2501" y2="19.8081">
		<stop  offset="0" style="stop-color:#00C6FF"/>
		<stop  offset="1" style="stop-color:#0072FF"/>
	</linearGradient>
	<path style="fill:url(#SVGID_00000122704108253230439240000006770207891678513557_);" d="M25.57,20.49H12.61
		c-0.38,0-0.68-0.3-0.68-0.68l0,0c0-0.38,0.3-0.68,0.68-0.68h12.96c0.38,0,0.68,0.3,0.68,0.68l0,0
		C26.25,20.18,25.95,20.49,25.57,20.49z"/>
	
		<linearGradient id="SVGID_00000062174785458534754750000011293379489438756480_" gradientUnits="userSpaceOnUse" x1="11.9307" y1="24.3688" x2="20.7918" y2="24.3688">
		<stop  offset="0" style="stop-color:#00C6FF"/>
		<stop  offset="1" style="stop-color:#0072FF"/>
	</linearGradient>
	<path style="fill:url(#SVGID_00000062174785458534754750000011293379489438756480_);" d="M20.11,25.05h-7.5
		c-0.38,0-0.68-0.3-0.68-0.68l0,0c0-0.38,0.3-0.68,0.68-0.68h7.5c0.38,0,0.68,0.3,0.68,0.68l0,0
		C20.79,24.74,20.49,25.05,20.11,25.05z"/>
	
		<linearGradient id="SVGID_00000025436312265138320310000006259244253177716628_" gradientUnits="userSpaceOnUse" x1="11.909" y1="28.9296" x2="20.012" y2="28.9296">
		<stop  offset="0" style="stop-color:#00C6FF"/>
		<stop  offset="1" style="stop-color:#0072FF"/>
	</linearGradient>
	<path style="fill:url(#SVGID_00000025436312265138320310000006259244253177716628_);" d="M19.33,29.61h-6.74
		c-0.38,0-0.68-0.3-0.68-0.68v0c0-0.38,0.3-0.68,0.68-0.68h6.74c0.38,0,0.68,0.3,0.68,0.68v0C20.01,29.31,19.71,29.61,19.33,29.61z"
		/>
</g>
<g>
	
		<linearGradient id="SVGID_00000176757095525389302310000017831426174186235071_" gradientUnits="userSpaceOnUse" x1="20.012" y1="26.2411" x2="34.6493" y2="26.2411">
		<stop  offset="0" style="stop-color:#00C6FF"/>
		<stop  offset="1" style="stop-color:#0072FF"/>
	</linearGradient>
	<circle style="fill:url(#SVGID_00000176757095525389302310000017831426174186235071_);" cx="27.33" cy="26.24" r="7.32"/>
	<path class="st6" d="M24.27,28.01l-0.74,2.17l2.26-0.71L24.27,28.01z"/>
	<path class="st6" d="M31.57,22.47c-0.43-0.42-1.13-0.42-1.52,0l-5.16,4.92l1.52,1.46l5.16-4.96C32,23.51,32,22.84,31.57,22.47z"/>
</g>
</svg>
