<?xml version="1.0" encoding="utf-8"?>
<!-- Generator: Adobe Illustrator 26.0.2, SVG Export Plug-In . SVG Version: 6.00 Build 0)  -->
<svg version="1.0" id="Layer_1" xmlns="http://www.w3.org/2000/svg" xmlns:xlink="http://www.w3.org/1999/xlink" x="0px" y="0px"
	 width="40px" height="40px" viewBox="0 0 40 40" style="enable-background:new 0 0 40 40;" xml:space="preserve">
<style type="text/css">
	.st0{fill:url(#SVGID_1_);}
	.st1{fill:url(#SVGID_00000018932616259491474540000013671895169055625605_);}
	.st2{fill:#FFFFFF;}
	.st3{fill:url(#SVGID_00000085221758423210048310000011257850818732415654_);}
	.st4{fill:url(#SVGID_00000113316458079300646070000013367978484602249647_);}
	.st5{fill-rule:evenodd;clip-rule:evenodd;fill:url(#SVGID_00000118374497004609108740000013968789366769787578_);}
	.st6{fill:url(#SVGID_00000155115503234243493930000015554764319746532493_);}
	.st7{fill:url(#SVGID_00000047048353492307206540000010007305129282337195_);}
	.st8{fill:url(#SVGID_00000170265836730018036140000007690629744452840116_);}
	.st9{fill:url(#SVGID_00000042730552857399017110000002462979380526689704_);}
	.st10{fill:url(#SVGID_00000029040939380051623110000007199161369655738534_);}
	.st11{fill:url(#SVGID_00000039822192261828945940000015339282731603288254_);}
	.st12{fill:url(#SVGID_00000047019502619167441650000014668052927206283191_);}
	.st13{fill:url(#SVGID_00000105387732692912696930000011300881711573027740_);}
	.st14{fill:url(#SVGID_00000047044355635950769360000003938484705532632749_);}
	.st15{fill:url(#SVGID_00000165932172454903469040000010050404253981956777_);}
	.st16{fill:url(#SVGID_00000131329388782462199250000016569774831512274346_);}
	.st17{fill:url(#SVGID_00000138547905171769851570000015718197246087656871_);}
	.st18{fill:url(#SVGID_00000011749187652296212190000005924857088437219729_);}
	.st19{fill-rule:evenodd;clip-rule:evenodd;fill:url(#SVGID_00000090258271539572865700000003808529736197841806_);}
</style>
<linearGradient id="SVGID_1_" gradientUnits="userSpaceOnUse" x1="20.0072" y1="0.963" x2="19.3116" y2="18.0065">
	<stop  offset="0" style="stop-color:#47BF33"/>
	<stop  offset="1" style="stop-color:#9CFFAC"/>
</linearGradient>
<path class="st0" d="M2.43,13.06l29.86-7.05c1.03-0.24,2.07,0.43,2.33,1.51l2.99,12.67c0.25,1.08-0.38,2.15-1.41,2.39L6.34,29.63
	c-1.03,0.24-2.07-0.43-2.33-1.51L1.02,15.45C0.77,14.38,1.4,13.3,2.43,13.06z"/>
<linearGradient id="SVGID_00000074418526119834017770000002500392682384676518_" gradientUnits="userSpaceOnUse" x1="20" y1="14.5652" x2="20" y2="42.7654">
	<stop  offset="0" style="stop-color:#47BF33"/>
	<stop  offset="1" style="stop-color:#9CFFAC"/>
</linearGradient>
<path style="fill:url(#SVGID_00000074418526119834017770000002500392682384676518_);" d="M2.94,14.52h34.13
	c1.18,0,2.13,1.08,2.13,2.41v15.65c0,1.33-0.95,2.41-2.13,2.41H2.94c-1.18,0-2.13-1.08-2.13-2.41V16.93
	C0.8,15.6,1.76,14.52,2.94,14.52z"/>
<g>
	<circle class="st2" cx="20.3" cy="24.75" r="9.37"/>
	<g>
		
			<linearGradient id="SVGID_00000000207433275609791330000012036070269433472932_" gradientUnits="userSpaceOnUse" x1="17" y1="24.7522" x2="24" y2="24.7522">
			<stop  offset="0" style="stop-color:#47BF33"/>
			<stop  offset="1" style="stop-color:#9CFFAC"/>
		</linearGradient>
		<path style="fill:url(#SVGID_00000000207433275609791330000012036070269433472932_);" d="M23.39,24.96
			c-0.42-0.51-1.12-0.84-2.03-1.1c-0.91-0.21-1.54-0.42-1.85-0.59c-0.31-0.17-0.45-0.42-0.45-0.8c0-0.59,0.49-0.93,1.43-0.93
			c0.77,0,1.26,0.21,1.4,0.63c0.07,0.21,0.24,0.3,0.45,0.3l0.84-0.04c0.35,0,0.59-0.42,0.45-0.8c-0.28-0.93-1.01-1.48-2.2-1.65
			v-1.14c0-0.34-0.21-0.59-0.49-0.59h-0.7c-0.28,0-0.49,0.25-0.49,0.59v1.1c-0.66,0.08-1.22,0.34-1.61,0.72
			c-0.56,0.51-0.84,1.14-0.84,1.9c0,0.68,0.21,1.27,0.63,1.73c0.42,0.46,1.12,0.8,2.06,1.06c0.94,0.21,1.57,0.42,1.82,0.63
			c0.24,0.21,0.38,0.46,0.38,0.89c0,0.89-0.52,1.31-1.61,1.31c-0.94,0-1.54-0.38-1.82-1.1c-0.1-0.3-0.35-0.46-0.63-0.42l-0.77,0.08
			c-0.28,0.04-0.45,0.34-0.35,0.63c0.38,1.35,1.26,2.11,2.66,2.32v0.97c0,0.34,0.21,0.59,0.49,0.59h0.7c0.28,0,0.49-0.25,0.49-0.59
			v-0.97c0.56-0.13,1.08-0.34,1.57-0.68c0.7-0.51,1.05-1.22,1.05-2.15C24.06,26.1,23.81,25.47,23.39,24.96z"/>
		
			<linearGradient id="SVGID_00000016776792511860202560000015727183966147282606_" gradientUnits="userSpaceOnUse" x1="16.8502" y1="24.7522" x2="24.15" y2="24.7522">
			<stop  offset="0" style="stop-color:#47BF33"/>
			<stop  offset="1" style="stop-color:#9CFFAC"/>
		</linearGradient>
		<path style="fill:url(#SVGID_00000016776792511860202560000015727183966147282606_);" d="M21.41,23.72L21.41,23.72L21.41,23.72
			c-0.91-0.21-1.53-0.42-1.82-0.58c-0.14-0.07-0.23-0.16-0.29-0.26c-0.06-0.1-0.09-0.23-0.09-0.41c0-0.25,0.1-0.43,0.3-0.56
			c0.21-0.14,0.53-0.22,0.99-0.22c0.76,0,1.15,0.21,1.26,0.53c0.05,0.14,0.13,0.24,0.24,0.31c0.11,0.07,0.23,0.09,0.36,0.09v0
			l0.01,0l0.84-0.04c0.24,0,0.43-0.15,0.54-0.33c0.11-0.19,0.14-0.43,0.06-0.67c-0.15-0.49-0.42-0.89-0.81-1.18
			c-0.36-0.27-0.83-0.45-1.38-0.55v-1.01c0-0.39-0.25-0.74-0.64-0.74h-0.7c-0.39,0-0.64,0.35-0.64,0.74v0.97
			c-0.63,0.1-1.18,0.36-1.56,0.74c-0.59,0.53-0.89,1.21-0.89,2.01c0,0.71,0.22,1.34,0.67,1.83c0.45,0.5,1.18,0.84,2.14,1.1v0l0.01,0
			c0.47,0.1,0.86,0.21,1.15,0.31c0.3,0.1,0.5,0.2,0.6,0.29c0.11,0.09,0.19,0.19,0.25,0.31c0.05,0.12,0.09,0.27,0.09,0.46
			c0,0.41-0.12,0.69-0.34,0.87c-0.23,0.18-0.59,0.29-1.12,0.29c-0.45,0-0.81-0.09-1.08-0.26c-0.27-0.17-0.47-0.41-0.6-0.74
			c-0.12-0.35-0.43-0.57-0.79-0.52l-0.77,0.08v0l-0.01,0c-0.38,0.06-0.6,0.45-0.47,0.83c0.2,0.7,0.53,1.25,0.99,1.66
			c0.44,0.38,0.99,0.63,1.66,0.75v0.84c0,0.39,0.25,0.74,0.64,0.74h0.7c0.39,0,0.64-0.35,0.64-0.74v-0.85
			c0.53-0.13,1.04-0.34,1.51-0.67l0,0l0,0c0.74-0.54,1.11-1.3,1.11-2.27c0.07-0.8-0.19-1.47-0.63-2
			C23.06,24.33,22.32,23.98,21.41,23.72z"/>
	</g>
</g>
</svg>
