<?xml version="1.0" encoding="utf-8"?>
<!-- Generator: Adobe Illustrator 26.0.2, SVG Export Plug-In . SVG Version: 6.00 Build 0)  -->
<svg version="1.0" id="Layer_1" xmlns="http://www.w3.org/2000/svg" xmlns:xlink="http://www.w3.org/1999/xlink" x="0px" y="0px"
	 width="40px" height="40px" viewBox="0 0 40 40" style="enable-background:new 0 0 40 40;" xml:space="preserve">
<style type="text/css">
	.st0{fill:url(#SVGID_1_);}
	.st1{fill:url(#SVGID_00000107547850157277612170000017124554319921993151_);}
	.st2{fill:url(#SVGID_00000010988986934265603270000006009146877540453547_);}
	.st3{fill:url(#SVGID_00000079455711929965969500000012418340955325956259_);}
	.st4{fill:url(#SVGID_00000066512609974304874380000018358747959182218420_);}
	.st5{fill:url(#SVGID_00000158009287222949336050000014988632063507709831_);}
	.st6{fill:#FFFFFF;}
	.st7{fill:url(#SVGID_00000046317924024046174740000011845701036768595856_);}
	.st8{fill:url(#SVGID_00000078015104335662869450000016496254733110434479_);}
	.st9{fill-rule:evenodd;clip-rule:evenodd;fill:url(#SVGID_00000164499785551016669700000002418434709026738854_);}
	.st10{fill:url(#SVGID_00000125594098442795850130000001825333046278779567_);}
	.st11{fill:url(#SVGID_00000033371201371088919600000014903035195108221845_);}
	.st12{fill:url(#SVGID_00000076593835879121372110000012339521609576705411_);}
	.st13{fill:url(#SVGID_00000060722041150468379150000007992001163845032120_);}
	.st14{fill:url(#SVGID_00000062895276673714110200000012283536608734995333_);}
	.st15{fill:url(#SVGID_00000035504004908227156120000016067428829232660108_);}
	.st16{fill:url(#SVGID_00000003789369617277751750000007263082991878718134_);}
	.st17{fill:url(#SVGID_00000163039578572494693830000012436458966272908164_);}
	.st18{fill:url(#SVGID_00000155834871578466627940000003389849984836534954_);}
	.st19{fill:url(#SVGID_00000043441929311727911030000014874422064672091035_);}
	.st20{fill:url(#SVGID_00000171697481514945196390000005412934805859747479_);}
	.st21{fill:url(#SVGID_00000035492991249459391920000017958992715701328017_);}
	.st22{fill:url(#SVGID_00000134936077077348780730000009270763982091983515_);}
	.st23{fill-rule:evenodd;clip-rule:evenodd;fill:url(#SVGID_00000106121769861594468760000002442516430412447152_);}
	.st24{fill:url(#SVGID_00000037674096095023288820000011898701091872234639_);}
	.st25{fill:url(#SVGID_00000018948814502377628350000010096501348215582848_);}
	.st26{fill:url(#SVGID_00000078042453854982641210000004120886348538097833_);}
	.st27{fill:url(#SVGID_00000031202916507765530690000013502531709314692504_);}
	.st28{fill-rule:evenodd;clip-rule:evenodd;fill:#FFFFFF;}
	.st29{fill:url(#SVGID_00000158031208321911314890000014787887108091777174_);}
	.st30{fill:url(#SVGID_00000159464605662404400160000014311320271921198757_);}
	.st31{fill:url(#SVGID_00000142863459326671832820000005946750851283884713_);}
	.st32{fill:url(#SVGID_00000065037340499595085480000016174839551782541468_);}
	.st33{fill:url(#SVGID_00000073001455419014155700000001405444795328654216_);}
	.st34{fill:url(#SVGID_00000177483996529921877450000015704887296806375079_);}
	.st35{fill:url(#SVGID_00000103954872543505215070000005431075993008226745_);}
	.st36{fill:url(#SVGID_00000152245242022260727720000006632231460396586678_);}
</style>
<linearGradient id="SVGID_1_" gradientUnits="userSpaceOnUse" x1="0.1324" y1="20.0941" x2="40.1244" y2="20.0941">
	<stop  offset="0" style="stop-color:#8E2DE2"/>
	<stop  offset="1" style="stop-color:#4A00E0"/>
</linearGradient>
<path class="st0" d="M31.48,40.09H8.78c-4.77,0-8.64-3.87-8.64-8.64V8.74C0.13,3.97,4,0.1,8.78,0.1h22.7c4.77,0,8.64,3.87,8.64,8.64
	v22.7C40.12,36.22,36.25,40.09,31.48,40.09z"/>
<path class="st6" d="M26.88,16.86l-2.4-0.73c-0.14-0.52-0.36-1.02-0.59-1.47l1.25-2.08c0.25-0.4,0.15-0.92-0.23-1.21l-3.19-2.53
	c-0.37-0.3-0.91-0.28-1.24,0.03l-1.79,1.65c-0.49-0.13-1.02-0.2-1.59-0.25l-1.24-2.15c-0.23-0.39-0.76-0.57-1.17-0.4l-3.79,1.42
	c-0.44,0.16-0.7,0.62-0.58,1.07l0.59,2.38c-0.22,0.21-0.38,0.4-0.53,0.58c-0.14,0.18-0.31,0.4-0.47,0.64l-2.49-0.05
	c-0.47,0-0.86,0.32-0.93,0.8l-0.59,3.95c-0.08,0.43,0.17,0.89,0.66,1.05l2.38,0.73c0.15,0.51,0.34,1.01,0.59,1.47l-1.25,2.08
	c-0.24,0.38-0.15,0.92,0.23,1.21l3.21,2.54c0.37,0.3,0.91,0.28,1.24-0.04l1.79-1.63c0.49,0.13,1.02,0.21,1.59,0.25l1.24,2.15
	c0.05,0.1,0.14,0.19,0.23,0.27c0.28,0.21,0.64,0.27,0.94,0.14l3.8-1.42c0.43-0.2,0.67-0.64,0.56-1.1l-0.59-2.38
	c0.16-0.16,0.35-0.35,0.53-0.58c0.18-0.22,0.33-0.44,0.47-0.64l2.49,0.05c0.47,0,0.86-0.32,0.95-0.79l0.59-3.95
	C27.63,17.49,27.37,17.03,26.88,16.86z"/>
<path class="st6" d="M33.49,28.59l-0.92-0.79c0.04-0.26,0.04-0.52,0.02-0.77l0.96-0.68c0.19-0.13,0.25-0.38,0.13-0.59l-0.93-1.74
	c-0.11-0.21-0.35-0.3-0.56-0.23l-1.12,0.39c-0.2-0.15-0.41-0.29-0.66-0.42l-0.14-1.2c-0.03-0.22-0.23-0.4-0.44-0.41l-1.96-0.1
	c-0.23-0.01-0.43,0.14-0.47,0.36l-0.2,1.17c-0.14,0.05-0.25,0.1-0.35,0.16c-0.1,0.05-0.21,0.12-0.33,0.19l-1.1-0.5
	c-0.21-0.09-0.44-0.02-0.57,0.17l-1.03,1.64c-0.12,0.18-0.1,0.43,0.09,0.6l0.92,0.79c-0.03,0.26-0.04,0.51-0.02,0.77l-0.96,0.68
	c-0.18,0.12-0.25,0.38-0.13,0.59l0.93,1.75c0.11,0.21,0.35,0.3,0.56,0.22l1.11-0.38c0.2,0.15,0.41,0.29,0.66,0.42l0.14,1.2
	c0,0.06,0.03,0.11,0.05,0.16c0.08,0.15,0.23,0.24,0.39,0.25l1.97,0.1c0.23,0,0.42-0.16,0.46-0.38l0.2-1.17
	c0.1-0.04,0.23-0.09,0.35-0.16c0.12-0.06,0.23-0.13,0.33-0.19l1.1,0.5c0.21,0.09,0.44,0.02,0.58-0.17l1.03-1.64
	C33.7,29.01,33.67,28.75,33.49,28.59z"/>
<linearGradient id="SVGID_00000000928403906005878530000014105551044553454774_" gradientUnits="userSpaceOnUse" x1="10.1019" y1="18.2194" x2="23.3883" y2="18.2194">
	<stop  offset="0" style="stop-color:#8E2DE2"/>
	<stop  offset="1" style="stop-color:#4A00E0"/>
</linearGradient>
<circle style="fill:url(#SVGID_00000000928403906005878530000014105551044553454774_);" cx="16.75" cy="18.22" r="6.64"/>
<g>
	
		<linearGradient id="SVGID_00000162348584844083099240000011485815695216158139_" gradientUnits="userSpaceOnUse" x1="27.3406" y1="27.216" x2="30.0727" y2="27.216">
		<stop  offset="0" style="stop-color:#8E2DE2"/>
		<stop  offset="1" style="stop-color:#4A00E0"/>
	</linearGradient>
	<path style="fill:url(#SVGID_00000162348584844083099240000011485815695216158139_);" d="M29.84,27.3
		c-0.16-0.2-0.44-0.33-0.79-0.43c-0.35-0.08-0.6-0.16-0.72-0.23c-0.12-0.07-0.18-0.16-0.18-0.31c0-0.23,0.19-0.36,0.56-0.36
		c0.3,0,0.49,0.08,0.55,0.25c0.03,0.08,0.1,0.12,0.18,0.12l0.33-0.02c0.14,0,0.23-0.16,0.18-0.31c-0.11-0.36-0.4-0.58-0.86-0.64
		v-0.44c0-0.13-0.08-0.23-0.19-0.23h-0.27c-0.11,0-0.19,0.1-0.19,0.23v0.43c-0.26,0.03-0.48,0.13-0.63,0.28
		c-0.22,0.2-0.33,0.44-0.33,0.74c0,0.26,0.08,0.49,0.25,0.68c0.16,0.18,0.44,0.31,0.81,0.41c0.37,0.08,0.61,0.16,0.71,0.25
		c0.1,0.08,0.15,0.18,0.15,0.35c0,0.35-0.2,0.51-0.63,0.51c-0.37,0-0.6-0.15-0.71-0.43c-0.04-0.12-0.14-0.18-0.25-0.16l-0.3,0.03
		c-0.11,0.02-0.18,0.13-0.14,0.25c0.15,0.53,0.49,0.82,1.04,0.91v0.38c0,0.13,0.08,0.23,0.19,0.23h0.27c0.11,0,0.19-0.1,0.19-0.23
		v-0.38c0.22-0.05,0.42-0.13,0.61-0.26c0.27-0.2,0.41-0.48,0.41-0.84C30.1,27.74,30,27.5,29.84,27.3z"/>
	
		<linearGradient id="SVGID_00000176729161768225831610000000085449981022109613_" gradientUnits="userSpaceOnUse" x1="27.2821" y1="27.216" x2="30.1313" y2="27.216">
		<stop  offset="0" style="stop-color:#8E2DE2"/>
		<stop  offset="1" style="stop-color:#4A00E0"/>
	</linearGradient>
	<path style="fill:url(#SVGID_00000176729161768225831610000000085449981022109613_);" d="M29.06,26.81L29.06,26.81L29.06,26.81
		c-0.36-0.08-0.6-0.16-0.71-0.23c-0.05-0.03-0.09-0.06-0.11-0.1c-0.02-0.04-0.04-0.09-0.04-0.16c0-0.1,0.04-0.17,0.12-0.22
		c0.08-0.05,0.21-0.09,0.39-0.09c0.3,0,0.45,0.08,0.49,0.21c0.02,0.05,0.05,0.09,0.09,0.12c0.04,0.03,0.09,0.04,0.14,0.04v0l0,0
		l0.33-0.02c0.09,0,0.17-0.06,0.21-0.13c0.04-0.07,0.05-0.17,0.02-0.26c-0.06-0.19-0.16-0.35-0.32-0.46
		c-0.14-0.11-0.32-0.18-0.54-0.21v-0.39c0-0.15-0.1-0.29-0.25-0.29h-0.27c-0.15,0-0.25,0.14-0.25,0.29v0.38
		c-0.25,0.04-0.46,0.14-0.61,0.29c-0.23,0.21-0.35,0.47-0.35,0.78c0,0.28,0.09,0.52,0.26,0.71c0.18,0.19,0.46,0.33,0.83,0.43v0l0,0
		c0.18,0.04,0.33,0.08,0.45,0.12c0.12,0.04,0.19,0.08,0.23,0.11c0.04,0.04,0.07,0.08,0.1,0.12c0.02,0.05,0.03,0.1,0.03,0.18
		c0,0.16-0.05,0.27-0.13,0.34c-0.09,0.07-0.23,0.11-0.44,0.11c-0.18,0-0.32-0.04-0.42-0.1c-0.11-0.06-0.18-0.16-0.23-0.29
		c-0.05-0.14-0.17-0.22-0.31-0.2l-0.3,0.03v0l0,0c-0.15,0.02-0.23,0.18-0.18,0.32c0.08,0.27,0.21,0.49,0.39,0.65
		c0.17,0.15,0.39,0.25,0.65,0.29v0.33c0,0.15,0.1,0.29,0.25,0.29h0.27c0.15,0,0.25-0.14,0.25-0.29v-0.33
		c0.21-0.05,0.4-0.13,0.59-0.26l0,0l0,0c0.29-0.21,0.43-0.51,0.43-0.88c0.03-0.31-0.07-0.57-0.25-0.78
		C29.71,27.05,29.42,26.91,29.06,26.81z"/>
</g>
<g>
	<path class="st6" d="M15.22,20.78v-3.91h-1.1v4.46h0.68L15.22,20.78z"/>
	<path class="st6" d="M17.23,20.78v-3.91h-1.1v4.46h0.68L17.23,20.78z"/>
	<path class="st6" d="M19.24,20.78v-3.91h-1.1v4.46h0.68L19.24,20.78z"/>
	<path class="st6" d="M20.39,16.16H13.1c-0.14,0-0.26,0.1-0.26,0.21v0.43c0,0.11,0.12,0.21,0.26,0.21h7.29
		c0.14,0,0.26-0.1,0.26-0.21v-0.43C20.65,16.26,20.53,16.16,20.39,16.16z"/>
	<path class="st6" d="M20.39,20.77H13.1c-0.14,0-0.26,0.16-0.26,0.35v0.69c0,0.18,0.12,0.35,0.26,0.35h7.29
		c0.14,0,0.26-0.16,0.26-0.35v-0.69C20.65,20.92,20.53,20.77,20.39,20.77z"/>
	<path class="st28" d="M17.34,14.02c-0.55-0.39-1.02-0.19-1.26,0l-2.96,2.29h7.25L17.34,14.02z"/>
</g>
</svg>
