<?xml version="1.0" encoding="utf-8"?>
<!-- Generator: Adobe Illustrator 26.0.2, SVG Export Plug-In . SVG Version: 6.00 Build 0)  -->
<svg version="1.0" id="Layer_1" xmlns="http://www.w3.org/2000/svg" xmlns:xlink="http://www.w3.org/1999/xlink" x="0px" y="0px"
	 width="40px" height="40px" viewBox="0 0 40 40" style="enable-background:new 0 0 40 40;" xml:space="preserve">
<style type="text/css">
	.st0{fill:url(#SVGID_1_);}
	.st1{fill:url(#SVGID_00000150064393718551496950000009511924444430512799_);}
	.st2{fill:url(#SVGID_00000018947793790281440860000003089649966327579069_);}
	.st3{fill:url(#SVGID_00000152979012504179500070000014611934092700524473_);}
	.st4{fill:url(#SVGID_00000006677256345089179020000007492159368465631616_);}
	.st5{fill:url(#SVGID_00000175283909622480198830000006292081506220367550_);}
	.st6{fill:#FFFFFF;}
	.st7{fill:url(#SVGID_00000102543017584984488560000014706920922347521152_);}
	.st8{fill:url(#SVGID_00000120560955342904547060000009034025408096600963_);}
	.st9{fill-rule:evenodd;clip-rule:evenodd;fill:url(#SVGID_00000062889379182804569620000005265040844520683925_);}
	.st10{fill:url(#SVGID_00000039092952881538242110000012570222213818655379_);}
	.st11{fill:url(#SVGID_00000156566155139008825970000015952429950528472211_);}
	.st12{fill:url(#SVGID_00000118377912985407647960000005811542206228176826_);}
	.st13{fill:url(#SVGID_00000035501123271554004470000000170659568470024343_);}
	.st14{fill:url(#SVGID_00000019678666635076782020000017530613648772839862_);}
	.st15{fill:url(#SVGID_00000012449445847959704490000001421707514071366279_);}
	.st16{fill:url(#SVGID_00000165943804091541507850000001689945932490032521_);}
	.st17{fill:url(#SVGID_00000106860849980449384840000008643334490213945750_);}
	.st18{fill:url(#SVGID_00000029034344727060647630000007557812029273085343_);}
	.st19{fill:url(#SVGID_00000096772615703605495850000004316515594869389214_);}
	.st20{fill:url(#SVGID_00000079460111690201069780000008150725015171949732_);}
	.st21{fill:url(#SVGID_00000024003782669003695300000015916487452695810944_);}
	.st22{fill:url(#SVGID_00000111904480346444693120000006190505723463445380_);}
	.st23{fill-rule:evenodd;clip-rule:evenodd;fill:url(#SVGID_00000139295241768123060940000011731790515514678929_);}
	.st24{fill:url(#SVGID_00000182525144182655516410000011050379122294551700_);}
	.st25{fill:url(#SVGID_00000080908524621504030760000017749908191939045028_);}
	.st26{fill:url(#SVGID_00000103971863251579215640000016820137816942786231_);}
	.st27{fill:url(#SVGID_00000175282189710879498040000000641749776839222704_);}
	.st28{fill-rule:evenodd;clip-rule:evenodd;fill:#FFFFFF;}
	.st29{fill:url(#SVGID_00000014601040985485012380000010733723355576603839_);}
	.st30{fill:url(#SVGID_00000164504764049086087530000011923698422444283054_);}
	.st31{fill:url(#SVGID_00000132089740848566558970000009053669630438608790_);}
	.st32{fill:url(#SVGID_00000073713569521671638770000000712159323434651547_);}
	.st33{fill:url(#SVGID_00000106825524634565676500000016098920761095086257_);}
	.st34{fill:url(#SVGID_00000034792291160051368460000005635127363691719352_);}
	.st35{fill:url(#SVGID_00000121281001891520987050000012818439514871948720_);}
	.st36{fill:url(#SVGID_00000021121780118526131560000011674703566344117159_);}
</style>
<linearGradient id="SVGID_1_" gradientUnits="userSpaceOnUse" x1="0.1324" y1="20.0941" x2="40.1244" y2="20.0941">
	<stop  offset="0" style="stop-color:#47BF33"/>
	<stop  offset="1" style="stop-color:#9CFFAC"/>
</linearGradient>
<path class="st0" d="M31.48,40.09H8.78c-4.77,0-8.64-3.87-8.64-8.64V8.74C0.13,3.97,4,0.1,8.78,0.1h22.7c4.77,0,8.64,3.87,8.64,8.64
	v22.7C40.12,36.22,36.25,40.09,31.48,40.09z"/>
<path class="st6" d="M7.95,12.76l22.33-5.27c0.77-0.18,1.55,0.32,1.74,1.13l2.24,9.48c0.19,0.81-0.28,1.61-1.05,1.79l-22.33,5.27
	c-0.77,0.18-1.55-0.32-1.74-1.13L6.9,14.55C6.71,13.74,7.18,12.94,7.95,12.76z"/>
<path class="st6" d="M7.82,15.56h25.52c0.88,0,1.59,0.81,1.59,1.8v11.7c0,0.99-0.71,1.8-1.59,1.8H7.82c-0.88,0-1.59-0.81-1.59-1.8
	v-11.7C6.23,16.37,6.94,15.56,7.82,15.56z"/>
<g>
	
		<linearGradient id="SVGID_00000145779132314232309550000010003936220383503774_" gradientUnits="userSpaceOnUse" x1="13.8019" y1="23.2113" x2="27.8147" y2="23.2113">
		<stop  offset="0" style="stop-color:#47BF33"/>
		<stop  offset="1" style="stop-color:#9CFFAC"/>
	</linearGradient>
	<circle style="fill:url(#SVGID_00000145779132314232309550000010003936220383503774_);" cx="20.81" cy="23.21" r="7.01"/>
	<g>
		<path class="st6" d="M23.12,23.37c-0.31-0.38-0.84-0.63-1.52-0.82c-0.68-0.16-1.15-0.32-1.39-0.44c-0.24-0.13-0.34-0.32-0.34-0.6
			c0-0.44,0.37-0.69,1.07-0.69c0.58,0,0.94,0.16,1.05,0.47c0.05,0.16,0.18,0.22,0.34,0.22l0.63-0.03c0.26,0,0.44-0.32,0.34-0.6
			c-0.21-0.69-0.76-1.1-1.65-1.23v-0.85c0-0.25-0.16-0.44-0.37-0.44h-0.52c-0.21,0-0.37,0.19-0.37,0.44v0.82
			c-0.5,0.06-0.92,0.25-1.2,0.54c-0.42,0.38-0.63,0.85-0.63,1.42c0,0.5,0.16,0.95,0.47,1.29c0.31,0.35,0.84,0.6,1.54,0.79
			c0.71,0.16,1.18,0.32,1.36,0.47c0.18,0.16,0.29,0.35,0.29,0.66c0,0.66-0.39,0.98-1.2,0.98c-0.71,0-1.15-0.28-1.36-0.82
			c-0.08-0.22-0.26-0.35-0.47-0.32l-0.58,0.06c-0.21,0.03-0.34,0.25-0.26,0.47c0.29,1.01,0.94,1.58,1.99,1.74v0.73
			c0,0.25,0.16,0.44,0.37,0.44h0.52c0.21,0,0.37-0.19,0.37-0.44V26.9c0.42-0.09,0.81-0.25,1.18-0.5c0.52-0.38,0.78-0.92,0.78-1.61
			C23.62,24.22,23.43,23.75,23.12,23.37z"/>
		<path class="st6" d="M21.63,22.44L21.63,22.44L21.63,22.44c-0.68-0.16-1.14-0.31-1.36-0.43c-0.1-0.06-0.17-0.12-0.21-0.2
			c-0.04-0.08-0.07-0.18-0.07-0.3c0-0.18,0.07-0.32,0.22-0.42c0.15-0.1,0.4-0.16,0.74-0.16c0.57,0,0.86,0.16,0.94,0.4
			c0.03,0.1,0.1,0.18,0.18,0.23c0.08,0.05,0.17,0.07,0.27,0.07v0l0.01,0l0.62-0.03c0.18,0,0.32-0.11,0.4-0.25
			c0.08-0.14,0.1-0.32,0.04-0.5c-0.11-0.37-0.31-0.66-0.61-0.88c-0.27-0.2-0.62-0.34-1.03-0.41v-0.76c0-0.29-0.19-0.55-0.48-0.55
			h-0.52c-0.29,0-0.48,0.26-0.48,0.55v0.72c-0.47,0.08-0.88,0.27-1.17,0.55c-0.44,0.4-0.66,0.9-0.66,1.5c0,0.53,0.16,1,0.5,1.37
			c0.34,0.37,0.88,0.63,1.6,0.82v0l0,0c0.35,0.08,0.64,0.16,0.86,0.23c0.23,0.08,0.37,0.15,0.45,0.22c0.08,0.07,0.14,0.15,0.18,0.23
			c0.04,0.09,0.06,0.2,0.06,0.34c0,0.31-0.09,0.52-0.26,0.65c-0.17,0.14-0.44,0.22-0.83,0.22c-0.34,0-0.6-0.07-0.81-0.19
			c-0.2-0.12-0.35-0.31-0.45-0.56c-0.09-0.26-0.32-0.43-0.59-0.39l-0.57,0.06v0l0,0c-0.28,0.04-0.45,0.34-0.35,0.62
			c0.15,0.52,0.39,0.93,0.74,1.24c0.33,0.29,0.74,0.47,1.24,0.56v0.63c0,0.29,0.19,0.55,0.48,0.55h0.52c0.29,0,0.48-0.26,0.48-0.55
			v-0.64c0.4-0.1,0.77-0.26,1.13-0.5l0,0l0,0c0.55-0.4,0.83-0.97,0.83-1.7c0.05-0.6-0.14-1.1-0.47-1.5
			C22.87,22.89,22.32,22.63,21.63,22.44z"/>
	</g>
</g>
</svg>
